<mxfile host="app.diagrams.net" modified="2021-10-20T14:22:11.082Z" agent="5.0 (Windows NT 10.0; Win64; x64) AppleWebKit/537.36 (KHTML, like Gecko) Chrome/94.0.4606.81 Safari/537.36" etag="Q1H0SFMVebx-Vux316No" version="15.5.6" type="github">
  <diagram id="h3XiX5L2xC7716TNH4we" name="Page-1">
    <mxGraphModel dx="1260" dy="818" grid="1" gridSize="10" guides="1" tooltips="1" connect="1" arrows="1" fold="1" page="1" pageScale="1" pageWidth="827" pageHeight="1169" math="0" shadow="0">
      <root>
        <mxCell id="0" />
        <mxCell id="1" parent="0" />
        <mxCell id="xyvLPHj3RRTKYlfgmULw-8" style="edgeStyle=orthogonalEdgeStyle;rounded=0;orthogonalLoop=1;jettySize=auto;html=1;entryX=0;entryY=0.5;entryDx=0;entryDy=0;" edge="1" parent="1" source="xyvLPHj3RRTKYlfgmULw-1" target="xyvLPHj3RRTKYlfgmULw-4">
          <mxGeometry relative="1" as="geometry" />
        </mxCell>
        <mxCell id="xyvLPHj3RRTKYlfgmULw-12" value="" style="edgeStyle=orthogonalEdgeStyle;rounded=0;orthogonalLoop=1;jettySize=auto;html=1;" edge="1" parent="1" source="xyvLPHj3RRTKYlfgmULw-1" target="xyvLPHj3RRTKYlfgmULw-4">
          <mxGeometry relative="1" as="geometry" />
        </mxCell>
        <mxCell id="xyvLPHj3RRTKYlfgmULw-1" value="CZŁOWIEK" style="rounded=0;whiteSpace=wrap;html=1;" vertex="1" parent="1">
          <mxGeometry x="80" y="40" width="120" height="60" as="geometry" />
        </mxCell>
        <mxCell id="xyvLPHj3RRTKYlfgmULw-11" style="edgeStyle=orthogonalEdgeStyle;rounded=0;orthogonalLoop=1;jettySize=auto;html=1;entryX=0;entryY=0.5;entryDx=0;entryDy=0;" edge="1" parent="1" source="xyvLPHj3RRTKYlfgmULw-2" target="xyvLPHj3RRTKYlfgmULw-10">
          <mxGeometry relative="1" as="geometry" />
        </mxCell>
        <mxCell id="xyvLPHj3RRTKYlfgmULw-2" value="LEW" style="rounded=0;whiteSpace=wrap;html=1;" vertex="1" parent="1">
          <mxGeometry x="80" y="120" width="120" height="60" as="geometry" />
        </mxCell>
        <mxCell id="xyvLPHj3RRTKYlfgmULw-9" style="edgeStyle=orthogonalEdgeStyle;rounded=0;orthogonalLoop=1;jettySize=auto;html=1;exitX=1;exitY=0.5;exitDx=0;exitDy=0;entryX=0;entryY=0.5;entryDx=0;entryDy=0;" edge="1" parent="1" source="xyvLPHj3RRTKYlfgmULw-3" target="xyvLPHj3RRTKYlfgmULw-5">
          <mxGeometry relative="1" as="geometry" />
        </mxCell>
        <mxCell id="xyvLPHj3RRTKYlfgmULw-3" value="ZWIERZĘ" style="rounded=0;whiteSpace=wrap;html=1;" vertex="1" parent="1">
          <mxGeometry x="80" y="200" width="120" height="60" as="geometry" />
        </mxCell>
        <mxCell id="xyvLPHj3RRTKYlfgmULw-4" value="ROZUM" style="rounded=0;whiteSpace=wrap;html=1;" vertex="1" parent="1">
          <mxGeometry x="220" y="40" width="120" height="60" as="geometry" />
        </mxCell>
        <mxCell id="xyvLPHj3RRTKYlfgmULw-5" value="APETYT" style="rounded=0;whiteSpace=wrap;html=1;" vertex="1" parent="1">
          <mxGeometry x="220" y="200" width="120" height="60" as="geometry" />
        </mxCell>
        <mxCell id="xyvLPHj3RRTKYlfgmULw-10" value="THYMOS" style="rounded=0;whiteSpace=wrap;html=1;" vertex="1" parent="1">
          <mxGeometry x="220" y="120" width="120" height="60" as="geometry" />
        </mxCell>
        <mxCell id="xyvLPHj3RRTKYlfgmULw-14" value="" style="endArrow=classic;html=1;rounded=0;" edge="1" parent="1">
          <mxGeometry width="50" height="50" relative="1" as="geometry">
            <mxPoint x="80" y="600" as="sourcePoint" />
            <mxPoint x="80" y="360" as="targetPoint" />
          </mxGeometry>
        </mxCell>
        <mxCell id="xyvLPHj3RRTKYlfgmULw-15" value="" style="endArrow=classic;html=1;rounded=0;" edge="1" parent="1">
          <mxGeometry width="50" height="50" relative="1" as="geometry">
            <mxPoint x="80" y="600" as="sourcePoint" />
            <mxPoint x="480" y="600" as="targetPoint" />
          </mxGeometry>
        </mxCell>
        <mxCell id="xyvLPHj3RRTKYlfgmULw-16" value="PRZYSZŁOŚĆ" style="text;html=1;align=center;verticalAlign=middle;resizable=0;points=[];autosize=1;strokeColor=none;fillColor=none;" vertex="1" parent="1">
          <mxGeometry x="370" y="610" width="100" height="20" as="geometry" />
        </mxCell>
        <mxCell id="xyvLPHj3RRTKYlfgmULw-17" value="TERAŹNIEJSZOŚĆ" style="text;html=1;align=center;verticalAlign=middle;resizable=0;points=[];autosize=1;strokeColor=none;fillColor=none;" vertex="1" parent="1">
          <mxGeometry x="80" y="610" width="120" height="20" as="geometry" />
        </mxCell>
        <mxCell id="xyvLPHj3RRTKYlfgmULw-18" value="OBNIŻANIE WARTOŚCI" style="text;html=1;align=center;verticalAlign=middle;resizable=0;points=[];autosize=1;strokeColor=none;fillColor=none;rotation=-90;" vertex="1" parent="1">
          <mxGeometry x="-20" y="460" width="150" height="20" as="geometry" />
        </mxCell>
        <mxCell id="xyvLPHj3RRTKYlfgmULw-20" value="" style="endArrow=none;html=1;curved=1;" edge="1" parent="1">
          <mxGeometry width="50" height="50" relative="1" as="geometry">
            <mxPoint x="100" y="590" as="sourcePoint" />
            <mxPoint x="440" y="360" as="targetPoint" />
            <Array as="points">
              <mxPoint x="380" y="590" />
            </Array>
          </mxGeometry>
        </mxCell>
        <mxCell id="xyvLPHj3RRTKYlfgmULw-253" value="" style="endArrow=classic;html=1;rounded=0;" edge="1" parent="1">
          <mxGeometry x="80" y="1760" width="50" height="50" as="geometry">
            <mxPoint x="80" y="2010" as="sourcePoint" />
            <mxPoint x="480" y="2010" as="targetPoint" />
          </mxGeometry>
        </mxCell>
        <mxCell id="xyvLPHj3RRTKYlfgmULw-254" value="PRZYSZŁOŚĆ" style="text;html=1;align=center;verticalAlign=middle;resizable=0;points=[];autosize=1;strokeColor=none;fillColor=none;" vertex="1" parent="1">
          <mxGeometry x="370" y="2020" width="100" height="20" as="geometry" />
        </mxCell>
        <mxCell id="xyvLPHj3RRTKYlfgmULw-255" value="TERAŹNIEJSZOŚĆ" style="text;html=1;align=center;verticalAlign=middle;resizable=0;points=[];autosize=1;strokeColor=none;fillColor=none;" vertex="1" parent="1">
          <mxGeometry x="80" y="2020" width="120" height="20" as="geometry" />
        </mxCell>
        <mxCell id="xyvLPHj3RRTKYlfgmULw-256" value="" style="endArrow=classic;html=1;curved=1;" edge="1" parent="1">
          <mxGeometry x="80" y="1760" width="50" height="50" as="geometry">
            <mxPoint x="80" y="1930" as="sourcePoint" />
            <mxPoint x="120" y="1890" as="targetPoint" />
          </mxGeometry>
        </mxCell>
        <mxCell id="xyvLPHj3RRTKYlfgmULw-257" value="" style="endArrow=classic;html=1;curved=1;" edge="1" parent="1">
          <mxGeometry x="80" y="1760" width="50" height="50" as="geometry">
            <mxPoint x="80" y="1930" as="sourcePoint" />
            <mxPoint x="120" y="1970" as="targetPoint" />
          </mxGeometry>
        </mxCell>
        <mxCell id="xyvLPHj3RRTKYlfgmULw-258" value="" style="endArrow=classic;html=1;curved=1;" edge="1" parent="1">
          <mxGeometry x="80" y="1760" width="50" height="50" as="geometry">
            <mxPoint x="120" y="1890" as="sourcePoint" />
            <mxPoint x="160" y="1880" as="targetPoint" />
          </mxGeometry>
        </mxCell>
        <mxCell id="xyvLPHj3RRTKYlfgmULw-259" value="" style="endArrow=classic;html=1;curved=1;" edge="1" parent="1">
          <mxGeometry x="80" y="1760" width="50" height="50" as="geometry">
            <mxPoint x="120" y="1890" as="sourcePoint" />
            <mxPoint x="160" y="1900" as="targetPoint" />
          </mxGeometry>
        </mxCell>
        <mxCell id="xyvLPHj3RRTKYlfgmULw-260" value="" style="endArrow=classic;html=1;curved=1;" edge="1" parent="1">
          <mxGeometry x="80" y="1760" width="50" height="50" as="geometry">
            <mxPoint x="120" y="1970" as="sourcePoint" />
            <mxPoint x="160" y="1960" as="targetPoint" />
          </mxGeometry>
        </mxCell>
        <mxCell id="xyvLPHj3RRTKYlfgmULw-261" value="" style="endArrow=classic;html=1;curved=1;" edge="1" parent="1">
          <mxGeometry x="80" y="1760" width="50" height="50" as="geometry">
            <mxPoint x="120" y="1970" as="sourcePoint" />
            <mxPoint x="160" y="1980" as="targetPoint" />
          </mxGeometry>
        </mxCell>
        <mxCell id="xyvLPHj3RRTKYlfgmULw-262" value="" style="endArrow=classic;html=1;curved=1;" edge="1" parent="1">
          <mxGeometry x="80" y="1760" width="50" height="50" as="geometry">
            <mxPoint x="160" y="1900" as="sourcePoint" />
            <mxPoint x="200" y="1900" as="targetPoint" />
          </mxGeometry>
        </mxCell>
        <mxCell id="xyvLPHj3RRTKYlfgmULw-263" value="" style="endArrow=classic;html=1;curved=1;" edge="1" parent="1">
          <mxGeometry x="80" y="1760" width="50" height="50" as="geometry">
            <mxPoint x="160" y="1900" as="sourcePoint" />
            <mxPoint x="200" y="1930" as="targetPoint" />
          </mxGeometry>
        </mxCell>
        <mxCell id="xyvLPHj3RRTKYlfgmULw-264" value="" style="endArrow=classic;html=1;curved=1;" edge="1" parent="1">
          <mxGeometry x="80" y="1760" width="50" height="50" as="geometry">
            <mxPoint x="160" y="1960" as="sourcePoint" />
            <mxPoint x="200" y="1950" as="targetPoint" />
          </mxGeometry>
        </mxCell>
        <mxCell id="xyvLPHj3RRTKYlfgmULw-265" value="" style="endArrow=classic;html=1;curved=1;" edge="1" parent="1">
          <mxGeometry x="80" y="1760" width="50" height="50" as="geometry">
            <mxPoint x="160" y="1960" as="sourcePoint" />
            <mxPoint x="200" y="1970" as="targetPoint" />
          </mxGeometry>
        </mxCell>
        <mxCell id="xyvLPHj3RRTKYlfgmULw-266" value="" style="endArrow=classic;html=1;curved=1;" edge="1" parent="1">
          <mxGeometry x="80" y="1760" width="50" height="50" as="geometry">
            <mxPoint x="160" y="1880" as="sourcePoint" />
            <mxPoint x="200" y="1850" as="targetPoint" />
          </mxGeometry>
        </mxCell>
        <mxCell id="xyvLPHj3RRTKYlfgmULw-267" value="" style="endArrow=classic;html=1;curved=1;" edge="1" parent="1">
          <mxGeometry x="80" y="1760" width="50" height="50" as="geometry">
            <mxPoint x="160" y="1880" as="sourcePoint" />
            <mxPoint x="200" y="1880" as="targetPoint" />
          </mxGeometry>
        </mxCell>
        <mxCell id="xyvLPHj3RRTKYlfgmULw-268" value="" style="endArrow=classic;html=1;curved=1;" edge="1" parent="1">
          <mxGeometry x="80" y="1760" width="50" height="50" as="geometry">
            <mxPoint x="200" y="1850" as="sourcePoint" />
            <mxPoint x="240" y="1840" as="targetPoint" />
          </mxGeometry>
        </mxCell>
        <mxCell id="xyvLPHj3RRTKYlfgmULw-269" value="" style="endArrow=classic;html=1;curved=1;" edge="1" parent="1">
          <mxGeometry x="80" y="1760" width="50" height="50" as="geometry">
            <mxPoint x="200" y="1850" as="sourcePoint" />
            <mxPoint x="240" y="1860" as="targetPoint" />
          </mxGeometry>
        </mxCell>
        <mxCell id="xyvLPHj3RRTKYlfgmULw-270" value="" style="endArrow=classic;html=1;curved=1;" edge="1" parent="1">
          <mxGeometry x="80" y="1760" width="50" height="50" as="geometry">
            <mxPoint x="200" y="1880" as="sourcePoint" />
            <mxPoint x="240" y="1870" as="targetPoint" />
          </mxGeometry>
        </mxCell>
        <mxCell id="xyvLPHj3RRTKYlfgmULw-271" value="" style="endArrow=classic;html=1;curved=1;" edge="1" parent="1">
          <mxGeometry x="80" y="1760" width="50" height="50" as="geometry">
            <mxPoint x="200" y="1880" as="sourcePoint" />
            <mxPoint x="240" y="1890" as="targetPoint" />
          </mxGeometry>
        </mxCell>
        <mxCell id="xyvLPHj3RRTKYlfgmULw-272" value="" style="endArrow=classic;html=1;curved=1;" edge="1" parent="1">
          <mxGeometry x="80" y="1760" width="50" height="50" as="geometry">
            <mxPoint x="200" y="1930" as="sourcePoint" />
            <mxPoint x="240" y="1920" as="targetPoint" />
          </mxGeometry>
        </mxCell>
        <mxCell id="xyvLPHj3RRTKYlfgmULw-273" value="" style="endArrow=classic;html=1;curved=1;" edge="1" parent="1">
          <mxGeometry x="80" y="1760" width="50" height="50" as="geometry">
            <mxPoint x="200" y="1930" as="sourcePoint" />
            <mxPoint x="240" y="1940" as="targetPoint" />
          </mxGeometry>
        </mxCell>
        <mxCell id="xyvLPHj3RRTKYlfgmULw-274" value="" style="endArrow=classic;html=1;curved=1;" edge="1" parent="1">
          <mxGeometry x="80" y="1760" width="50" height="50" as="geometry">
            <mxPoint x="200" y="1900" as="sourcePoint" />
            <mxPoint x="240" y="1900" as="targetPoint" />
          </mxGeometry>
        </mxCell>
        <mxCell id="xyvLPHj3RRTKYlfgmULw-275" value="" style="endArrow=classic;html=1;curved=1;" edge="1" parent="1">
          <mxGeometry x="80" y="1760" width="50" height="50" as="geometry">
            <mxPoint x="200" y="1900" as="sourcePoint" />
            <mxPoint x="240" y="1910" as="targetPoint" />
          </mxGeometry>
        </mxCell>
        <mxCell id="xyvLPHj3RRTKYlfgmULw-276" value="" style="endArrow=classic;html=1;curved=1;" edge="1" parent="1">
          <mxGeometry x="80" y="1760" width="50" height="50" as="geometry">
            <mxPoint x="200" y="1970" as="sourcePoint" />
            <mxPoint x="240" y="1960" as="targetPoint" />
          </mxGeometry>
        </mxCell>
        <mxCell id="xyvLPHj3RRTKYlfgmULw-277" value="" style="endArrow=classic;html=1;curved=1;" edge="1" parent="1">
          <mxGeometry x="80" y="1760" width="50" height="50" as="geometry">
            <mxPoint x="200" y="1970" as="sourcePoint" />
            <mxPoint x="240" y="1980" as="targetPoint" />
          </mxGeometry>
        </mxCell>
        <mxCell id="xyvLPHj3RRTKYlfgmULw-278" value="..." style="text;html=1;strokeColor=none;fillColor=none;align=center;verticalAlign=middle;whiteSpace=wrap;rounded=0;" vertex="1" parent="1">
          <mxGeometry x="230" y="1840" width="60" height="30" as="geometry" />
        </mxCell>
        <mxCell id="xyvLPHj3RRTKYlfgmULw-279" value="..." style="text;html=1;strokeColor=none;fillColor=none;align=center;verticalAlign=middle;whiteSpace=wrap;rounded=0;" vertex="1" parent="1">
          <mxGeometry x="230" y="1870" width="60" height="30" as="geometry" />
        </mxCell>
        <mxCell id="xyvLPHj3RRTKYlfgmULw-280" value="..." style="text;html=1;strokeColor=none;fillColor=none;align=center;verticalAlign=middle;whiteSpace=wrap;rounded=0;" vertex="1" parent="1">
          <mxGeometry x="230" y="1900" width="60" height="30" as="geometry" />
        </mxCell>
        <mxCell id="xyvLPHj3RRTKYlfgmULw-281" value="..." style="text;html=1;strokeColor=none;fillColor=none;align=center;verticalAlign=middle;whiteSpace=wrap;rounded=0;" vertex="1" parent="1">
          <mxGeometry x="230" y="1930" width="60" height="30" as="geometry" />
        </mxCell>
        <mxCell id="xyvLPHj3RRTKYlfgmULw-282" value="..." style="text;html=1;strokeColor=none;fillColor=none;align=center;verticalAlign=middle;whiteSpace=wrap;rounded=0;" vertex="1" parent="1">
          <mxGeometry x="230" y="1950" width="60" height="30" as="geometry" />
        </mxCell>
        <mxCell id="xyvLPHj3RRTKYlfgmULw-283" value="..." style="text;html=1;strokeColor=none;fillColor=none;align=center;verticalAlign=middle;whiteSpace=wrap;rounded=0;" vertex="1" parent="1">
          <mxGeometry x="260" y="1760" width="60" height="30" as="geometry" />
        </mxCell>
        <mxCell id="xyvLPHj3RRTKYlfgmULw-284" value="..." style="text;html=1;strokeColor=none;fillColor=none;align=center;verticalAlign=middle;whiteSpace=wrap;rounded=0;" vertex="1" parent="1">
          <mxGeometry x="260" y="1790" width="60" height="30" as="geometry" />
        </mxCell>
        <mxCell id="xyvLPHj3RRTKYlfgmULw-285" value="..." style="text;html=1;strokeColor=none;fillColor=none;align=center;verticalAlign=middle;whiteSpace=wrap;rounded=0;" vertex="1" parent="1">
          <mxGeometry x="260" y="1820" width="60" height="30" as="geometry" />
        </mxCell>
        <mxCell id="xyvLPHj3RRTKYlfgmULw-286" value="..." style="text;html=1;strokeColor=none;fillColor=none;align=center;verticalAlign=middle;whiteSpace=wrap;rounded=0;" vertex="1" parent="1">
          <mxGeometry x="260" y="1850" width="60" height="30" as="geometry" />
        </mxCell>
        <mxCell id="xyvLPHj3RRTKYlfgmULw-287" value="..." style="text;html=1;strokeColor=none;fillColor=none;align=center;verticalAlign=middle;whiteSpace=wrap;rounded=0;" vertex="1" parent="1">
          <mxGeometry x="260" y="1870" width="60" height="30" as="geometry" />
        </mxCell>
        <mxCell id="xyvLPHj3RRTKYlfgmULw-288" value="..." style="text;html=1;strokeColor=none;fillColor=none;align=center;verticalAlign=middle;whiteSpace=wrap;rounded=0;" vertex="1" parent="1">
          <mxGeometry x="260" y="1890" width="60" height="30" as="geometry" />
        </mxCell>
        <mxCell id="xyvLPHj3RRTKYlfgmULw-289" value="..." style="text;html=1;strokeColor=none;fillColor=none;align=center;verticalAlign=middle;whiteSpace=wrap;rounded=0;" vertex="1" parent="1">
          <mxGeometry x="260" y="1920" width="60" height="30" as="geometry" />
        </mxCell>
        <mxCell id="xyvLPHj3RRTKYlfgmULw-290" value="..." style="text;html=1;strokeColor=none;fillColor=none;align=center;verticalAlign=middle;whiteSpace=wrap;rounded=0;" vertex="1" parent="1">
          <mxGeometry x="260" y="1950" width="60" height="30" as="geometry" />
        </mxCell>
        <mxCell id="xyvLPHj3RRTKYlfgmULw-291" value="..." style="text;html=1;strokeColor=none;fillColor=none;align=center;verticalAlign=middle;whiteSpace=wrap;rounded=0;" vertex="1" parent="1">
          <mxGeometry x="260" y="1980" width="60" height="30" as="geometry" />
        </mxCell>
        <mxCell id="xyvLPHj3RRTKYlfgmULw-292" value="" style="group;rotation=-15;" vertex="1" connectable="0" parent="1">
          <mxGeometry x="320" y="1773" width="40" height="4" as="geometry" />
        </mxCell>
        <mxCell id="xyvLPHj3RRTKYlfgmULw-293" value="" style="endArrow=classic;html=1;curved=1;entryX=0;entryY=0.5;entryDx=0;entryDy=0;" edge="1" parent="xyvLPHj3RRTKYlfgmULw-292" target="xyvLPHj3RRTKYlfgmULw-294">
          <mxGeometry width="50" height="50" relative="1" as="geometry">
            <mxPoint x="1" y="7" as="sourcePoint" />
            <mxPoint x="29" y="-3" as="targetPoint" />
          </mxGeometry>
        </mxCell>
        <mxCell id="xyvLPHj3RRTKYlfgmULw-294" value="" style="ellipse;whiteSpace=wrap;html=1;fillColor=#33FF33;gradientColor=none;rotation=-15;" vertex="1" parent="xyvLPHj3RRTKYlfgmULw-292">
          <mxGeometry x="35" y="-5" width="4" height="4" as="geometry" />
        </mxCell>
        <mxCell id="xyvLPHj3RRTKYlfgmULw-295" value="" style="group;rotation=10;" vertex="1" connectable="0" parent="1">
          <mxGeometry x="320" y="1786" width="40" height="4" as="geometry" />
        </mxCell>
        <mxCell id="xyvLPHj3RRTKYlfgmULw-296" value="" style="endArrow=classic;html=1;curved=1;entryX=0;entryY=0.5;entryDx=0;entryDy=0;" edge="1" parent="xyvLPHj3RRTKYlfgmULw-295" target="xyvLPHj3RRTKYlfgmULw-297">
          <mxGeometry width="50" height="50" relative="1" as="geometry">
            <mxPoint x="1" y="-1" as="sourcePoint" />
            <mxPoint x="30" y="1" as="targetPoint" />
          </mxGeometry>
        </mxCell>
        <mxCell id="xyvLPHj3RRTKYlfgmULw-297" value="" style="ellipse;whiteSpace=wrap;html=1;fillColor=#FF0000;gradientColor=none;rotation=10;" vertex="1" parent="xyvLPHj3RRTKYlfgmULw-295">
          <mxGeometry x="36" y="3" width="4" height="4" as="geometry" />
        </mxCell>
        <mxCell id="xyvLPHj3RRTKYlfgmULw-298" value="" style="group;rotation=-15;" vertex="1" connectable="0" parent="1">
          <mxGeometry x="320" y="1803" width="40" height="4" as="geometry" />
        </mxCell>
        <mxCell id="xyvLPHj3RRTKYlfgmULw-299" value="" style="endArrow=classic;html=1;curved=1;entryX=0;entryY=0.5;entryDx=0;entryDy=0;" edge="1" parent="xyvLPHj3RRTKYlfgmULw-298" target="xyvLPHj3RRTKYlfgmULw-300">
          <mxGeometry width="50" height="50" relative="1" as="geometry">
            <mxPoint x="1" y="7" as="sourcePoint" />
            <mxPoint x="29" y="-3" as="targetPoint" />
          </mxGeometry>
        </mxCell>
        <mxCell id="xyvLPHj3RRTKYlfgmULw-300" value="" style="ellipse;whiteSpace=wrap;html=1;fillColor=#33FF33;gradientColor=none;rotation=-15;" vertex="1" parent="xyvLPHj3RRTKYlfgmULw-298">
          <mxGeometry x="35" y="-5" width="4" height="4" as="geometry" />
        </mxCell>
        <mxCell id="xyvLPHj3RRTKYlfgmULw-301" value="" style="group;rotation=0;" vertex="1" connectable="0" parent="1">
          <mxGeometry x="320" y="1816" width="40" height="4" as="geometry" />
        </mxCell>
        <mxCell id="xyvLPHj3RRTKYlfgmULw-302" value="" style="endArrow=classic;html=1;curved=1;entryX=0;entryY=0.5;entryDx=0;entryDy=0;" edge="1" parent="xyvLPHj3RRTKYlfgmULw-301" target="xyvLPHj3RRTKYlfgmULw-303">
          <mxGeometry width="50" height="50" relative="1" as="geometry">
            <mxPoint y="2" as="sourcePoint" />
            <mxPoint x="30" y="-1" as="targetPoint" />
          </mxGeometry>
        </mxCell>
        <mxCell id="xyvLPHj3RRTKYlfgmULw-303" value="" style="ellipse;whiteSpace=wrap;html=1;fillColor=#33FF33;gradientColor=none;rotation=0;" vertex="1" parent="xyvLPHj3RRTKYlfgmULw-301">
          <mxGeometry x="36" width="4" height="4" as="geometry" />
        </mxCell>
        <mxCell id="xyvLPHj3RRTKYlfgmULw-304" value="" style="group;rotation=20;" vertex="1" connectable="0" parent="1">
          <mxGeometry x="320" y="1829" width="40" height="4" as="geometry" />
        </mxCell>
        <mxCell id="xyvLPHj3RRTKYlfgmULw-305" value="" style="endArrow=classic;html=1;curved=1;entryX=0;entryY=0.5;entryDx=0;entryDy=0;" edge="1" parent="xyvLPHj3RRTKYlfgmULw-304" target="xyvLPHj3RRTKYlfgmULw-306">
          <mxGeometry width="50" height="50" relative="1" as="geometry">
            <mxPoint x="2" y="-5" as="sourcePoint" />
            <mxPoint x="30" y="3" as="targetPoint" />
          </mxGeometry>
        </mxCell>
        <mxCell id="xyvLPHj3RRTKYlfgmULw-306" value="" style="ellipse;whiteSpace=wrap;html=1;fillColor=#33FF33;gradientColor=none;rotation=20;" vertex="1" parent="xyvLPHj3RRTKYlfgmULw-304">
          <mxGeometry x="35" y="6" width="4" height="4" as="geometry" />
        </mxCell>
        <mxCell id="xyvLPHj3RRTKYlfgmULw-307" value="" style="group;rotation=-15;" vertex="1" connectable="0" parent="1">
          <mxGeometry x="320" y="1847" width="40" height="4" as="geometry" />
        </mxCell>
        <mxCell id="xyvLPHj3RRTKYlfgmULw-308" value="" style="endArrow=classic;html=1;curved=1;entryX=0;entryY=0.5;entryDx=0;entryDy=0;" edge="1" parent="xyvLPHj3RRTKYlfgmULw-307" target="xyvLPHj3RRTKYlfgmULw-309">
          <mxGeometry width="50" height="50" relative="1" as="geometry">
            <mxPoint x="1" y="7" as="sourcePoint" />
            <mxPoint x="29" y="-3" as="targetPoint" />
          </mxGeometry>
        </mxCell>
        <mxCell id="xyvLPHj3RRTKYlfgmULw-309" value="" style="ellipse;whiteSpace=wrap;html=1;fillColor=#33FF33;gradientColor=none;rotation=-15;" vertex="1" parent="xyvLPHj3RRTKYlfgmULw-307">
          <mxGeometry x="35" y="-5" width="4" height="4" as="geometry" />
        </mxCell>
        <mxCell id="xyvLPHj3RRTKYlfgmULw-310" value="" style="group;rotation=15;" vertex="1" connectable="0" parent="1">
          <mxGeometry x="320" y="1859" width="40" height="4" as="geometry" />
        </mxCell>
        <mxCell id="xyvLPHj3RRTKYlfgmULw-311" value="" style="endArrow=classic;html=1;curved=1;entryX=0;entryY=0.5;entryDx=0;entryDy=0;" edge="1" parent="xyvLPHj3RRTKYlfgmULw-310" target="xyvLPHj3RRTKYlfgmULw-312">
          <mxGeometry width="50" height="50" relative="1" as="geometry">
            <mxPoint x="1" y="-3" as="sourcePoint" />
            <mxPoint x="30" y="2" as="targetPoint" />
          </mxGeometry>
        </mxCell>
        <mxCell id="xyvLPHj3RRTKYlfgmULw-312" value="" style="ellipse;whiteSpace=wrap;html=1;fillColor=#33FF33;gradientColor=none;rotation=15;" vertex="1" parent="xyvLPHj3RRTKYlfgmULw-310">
          <mxGeometry x="35" y="4" width="4" height="4" as="geometry" />
        </mxCell>
        <mxCell id="xyvLPHj3RRTKYlfgmULw-313" value="" style="group;rotation=-5;" vertex="1" connectable="0" parent="1">
          <mxGeometry x="320" y="1873" width="40" height="4" as="geometry" />
        </mxCell>
        <mxCell id="xyvLPHj3RRTKYlfgmULw-314" value="" style="endArrow=classic;html=1;curved=1;entryX=0;entryY=0.5;entryDx=0;entryDy=0;" edge="1" parent="xyvLPHj3RRTKYlfgmULw-313" target="xyvLPHj3RRTKYlfgmULw-315">
          <mxGeometry width="50" height="50" relative="1" as="geometry">
            <mxPoint y="4" as="sourcePoint" />
            <mxPoint x="30" y="-1" as="targetPoint" />
          </mxGeometry>
        </mxCell>
        <mxCell id="xyvLPHj3RRTKYlfgmULw-315" value="" style="ellipse;whiteSpace=wrap;html=1;fillColor=#33FF33;gradientColor=none;rotation=-5;" vertex="1" parent="xyvLPHj3RRTKYlfgmULw-313">
          <mxGeometry x="36" y="-2" width="4" height="4" as="geometry" />
        </mxCell>
        <mxCell id="xyvLPHj3RRTKYlfgmULw-316" value="" style="group;rotation=15;" vertex="1" connectable="0" parent="1">
          <mxGeometry x="320" y="1887" width="40" height="4" as="geometry" />
        </mxCell>
        <mxCell id="xyvLPHj3RRTKYlfgmULw-317" value="" style="endArrow=classic;html=1;curved=1;entryX=0;entryY=0.5;entryDx=0;entryDy=0;" edge="1" parent="xyvLPHj3RRTKYlfgmULw-316" target="xyvLPHj3RRTKYlfgmULw-318">
          <mxGeometry width="50" height="50" relative="1" as="geometry">
            <mxPoint x="1" y="-3" as="sourcePoint" />
            <mxPoint x="30" y="2" as="targetPoint" />
          </mxGeometry>
        </mxCell>
        <mxCell id="xyvLPHj3RRTKYlfgmULw-318" value="" style="ellipse;whiteSpace=wrap;html=1;fillColor=#FF0000;gradientColor=none;rotation=15;" vertex="1" parent="xyvLPHj3RRTKYlfgmULw-316">
          <mxGeometry x="35" y="4" width="4" height="4" as="geometry" />
        </mxCell>
        <mxCell id="xyvLPHj3RRTKYlfgmULw-319" value="" style="group;rotation=-15;" vertex="1" connectable="0" parent="1">
          <mxGeometry x="320" y="1909" width="40" height="4" as="geometry" />
        </mxCell>
        <mxCell id="xyvLPHj3RRTKYlfgmULw-320" value="" style="endArrow=classic;html=1;curved=1;entryX=0;entryY=0.5;entryDx=0;entryDy=0;" edge="1" parent="xyvLPHj3RRTKYlfgmULw-319" target="xyvLPHj3RRTKYlfgmULw-321">
          <mxGeometry width="50" height="50" relative="1" as="geometry">
            <mxPoint x="1" y="7" as="sourcePoint" />
            <mxPoint x="29" y="-3" as="targetPoint" />
          </mxGeometry>
        </mxCell>
        <mxCell id="xyvLPHj3RRTKYlfgmULw-321" value="" style="ellipse;whiteSpace=wrap;html=1;fillColor=#33FF33;gradientColor=none;rotation=-15;" vertex="1" parent="xyvLPHj3RRTKYlfgmULw-319">
          <mxGeometry x="35" y="-5" width="4" height="4" as="geometry" />
        </mxCell>
        <mxCell id="xyvLPHj3RRTKYlfgmULw-322" value="" style="group;rotation=0;" vertex="1" connectable="0" parent="1">
          <mxGeometry x="320" y="1920" width="40" height="4" as="geometry" />
        </mxCell>
        <mxCell id="xyvLPHj3RRTKYlfgmULw-323" value="" style="endArrow=classic;html=1;curved=1;entryX=0;entryY=0.5;entryDx=0;entryDy=0;" edge="1" parent="xyvLPHj3RRTKYlfgmULw-322" target="xyvLPHj3RRTKYlfgmULw-324">
          <mxGeometry width="50" height="50" relative="1" as="geometry">
            <mxPoint y="2" as="sourcePoint" />
            <mxPoint x="30" y="-1" as="targetPoint" />
          </mxGeometry>
        </mxCell>
        <mxCell id="xyvLPHj3RRTKYlfgmULw-324" value="" style="ellipse;whiteSpace=wrap;html=1;fillColor=#FF0000;gradientColor=none;rotation=0;" vertex="1" parent="xyvLPHj3RRTKYlfgmULw-322">
          <mxGeometry x="36" width="4" height="4" as="geometry" />
        </mxCell>
        <mxCell id="xyvLPHj3RRTKYlfgmULw-325" value="" style="group;rotation=15;" vertex="1" connectable="0" parent="1">
          <mxGeometry x="320" y="1933" width="40" height="4" as="geometry" />
        </mxCell>
        <mxCell id="xyvLPHj3RRTKYlfgmULw-326" value="" style="endArrow=classic;html=1;curved=1;entryX=0;entryY=0.5;entryDx=0;entryDy=0;" edge="1" parent="xyvLPHj3RRTKYlfgmULw-325" target="xyvLPHj3RRTKYlfgmULw-327">
          <mxGeometry width="50" height="50" relative="1" as="geometry">
            <mxPoint x="1" y="-3" as="sourcePoint" />
            <mxPoint x="30" y="2" as="targetPoint" />
          </mxGeometry>
        </mxCell>
        <mxCell id="xyvLPHj3RRTKYlfgmULw-327" value="" style="ellipse;whiteSpace=wrap;html=1;fillColor=#FF0000;gradientColor=none;rotation=15;" vertex="1" parent="xyvLPHj3RRTKYlfgmULw-325">
          <mxGeometry x="35" y="4" width="4" height="4" as="geometry" />
        </mxCell>
        <mxCell id="xyvLPHj3RRTKYlfgmULw-328" value="" style="group;rotation=20;" vertex="1" connectable="0" parent="1">
          <mxGeometry x="320" y="1950" width="40" height="4" as="geometry" />
        </mxCell>
        <mxCell id="xyvLPHj3RRTKYlfgmULw-329" value="" style="endArrow=classic;html=1;curved=1;entryX=0;entryY=0.5;entryDx=0;entryDy=0;" edge="1" parent="xyvLPHj3RRTKYlfgmULw-328" target="xyvLPHj3RRTKYlfgmULw-330">
          <mxGeometry width="50" height="50" relative="1" as="geometry">
            <mxPoint x="2" y="-5" as="sourcePoint" />
            <mxPoint x="30" y="3" as="targetPoint" />
          </mxGeometry>
        </mxCell>
        <mxCell id="xyvLPHj3RRTKYlfgmULw-330" value="" style="ellipse;whiteSpace=wrap;html=1;fillColor=#FF0000;gradientColor=none;rotation=20;" vertex="1" parent="xyvLPHj3RRTKYlfgmULw-328">
          <mxGeometry x="35" y="6" width="4" height="4" as="geometry" />
        </mxCell>
        <mxCell id="xyvLPHj3RRTKYlfgmULw-331" value="" style="group;rotation=15;" vertex="1" connectable="0" parent="1">
          <mxGeometry x="320" y="1963" width="40" height="4" as="geometry" />
        </mxCell>
        <mxCell id="xyvLPHj3RRTKYlfgmULw-332" value="" style="endArrow=classic;html=1;curved=1;entryX=0;entryY=0.5;entryDx=0;entryDy=0;" edge="1" parent="xyvLPHj3RRTKYlfgmULw-331" target="xyvLPHj3RRTKYlfgmULw-333">
          <mxGeometry width="50" height="50" relative="1" as="geometry">
            <mxPoint x="1" y="-3" as="sourcePoint" />
            <mxPoint x="30" y="2" as="targetPoint" />
          </mxGeometry>
        </mxCell>
        <mxCell id="xyvLPHj3RRTKYlfgmULw-333" value="" style="ellipse;whiteSpace=wrap;html=1;fillColor=#FF0000;gradientColor=none;rotation=15;" vertex="1" parent="xyvLPHj3RRTKYlfgmULw-331">
          <mxGeometry x="35" y="4" width="4" height="4" as="geometry" />
        </mxCell>
        <mxCell id="xyvLPHj3RRTKYlfgmULw-334" value="" style="group;rotation=30;" vertex="1" connectable="0" parent="1">
          <mxGeometry x="320" y="1980" width="40" height="4" as="geometry" />
        </mxCell>
        <mxCell id="xyvLPHj3RRTKYlfgmULw-335" value="" style="endArrow=classic;html=1;curved=1;entryX=0;entryY=0.5;entryDx=0;entryDy=0;" edge="1" parent="xyvLPHj3RRTKYlfgmULw-334" target="xyvLPHj3RRTKYlfgmULw-336">
          <mxGeometry width="50" height="50" relative="1" as="geometry">
            <mxPoint x="3" y="-8" as="sourcePoint" />
            <mxPoint x="30" y="5" as="targetPoint" />
          </mxGeometry>
        </mxCell>
        <mxCell id="xyvLPHj3RRTKYlfgmULw-336" value="" style="ellipse;whiteSpace=wrap;html=1;fillColor=#FF0000;gradientColor=none;rotation=30;" vertex="1" parent="xyvLPHj3RRTKYlfgmULw-334">
          <mxGeometry x="34" y="8" width="4" height="4" as="geometry" />
        </mxCell>
        <mxCell id="xyvLPHj3RRTKYlfgmULw-339" style="edgeStyle=orthogonalEdgeStyle;curved=1;orthogonalLoop=1;jettySize=auto;html=1;entryX=1;entryY=0;entryDx=0;entryDy=0;strokeColor=#808080;" edge="1" parent="1" source="xyvLPHj3RRTKYlfgmULw-337" target="xyvLPHj3RRTKYlfgmULw-336">
          <mxGeometry x="80" y="1760" as="geometry" />
        </mxCell>
        <mxCell id="xyvLPHj3RRTKYlfgmULw-337" value="ŚMIERĆ W HAMILTON, RAK W LEWYM PŁUCU" style="text;html=1;strokeColor=none;fillColor=none;align=center;verticalAlign=middle;whiteSpace=wrap;rounded=0;" vertex="1" parent="1">
          <mxGeometry x="400" y="1937" width="60" height="30" as="geometry" />
        </mxCell>
        <mxCell id="xyvLPHj3RRTKYlfgmULw-243" value="" style="endArrow=classic;html=1;rounded=0;" edge="1" parent="1">
          <mxGeometry x="80" y="1260" width="50" height="50" as="geometry">
            <mxPoint x="80" y="1390" as="sourcePoint" />
            <mxPoint x="480" y="1390" as="targetPoint" />
          </mxGeometry>
        </mxCell>
        <mxCell id="xyvLPHj3RRTKYlfgmULw-244" value="PRZYSZŁOŚĆ" style="text;html=1;align=center;verticalAlign=middle;resizable=0;points=[];autosize=1;strokeColor=none;fillColor=none;" vertex="1" parent="1">
          <mxGeometry x="370" y="1400" width="100" height="20" as="geometry" />
        </mxCell>
        <mxCell id="xyvLPHj3RRTKYlfgmULw-245" value="TERAŹNIEJSZOŚĆ" style="text;html=1;align=center;verticalAlign=middle;resizable=0;points=[];autosize=1;strokeColor=none;fillColor=none;" vertex="1" parent="1">
          <mxGeometry x="80" y="1400" width="120" height="20" as="geometry" />
        </mxCell>
        <mxCell id="xyvLPHj3RRTKYlfgmULw-246" value="" style="endArrow=classic;html=1;curved=1;" edge="1" parent="1">
          <mxGeometry x="80" y="1260" width="50" height="50" as="geometry">
            <mxPoint x="80" y="1310" as="sourcePoint" />
            <mxPoint x="120" y="1270" as="targetPoint" />
          </mxGeometry>
        </mxCell>
        <mxCell id="xyvLPHj3RRTKYlfgmULw-247" value="" style="endArrow=classic;html=1;curved=1;" edge="1" parent="1">
          <mxGeometry x="80" y="1260" width="50" height="50" as="geometry">
            <mxPoint x="80" y="1310" as="sourcePoint" />
            <mxPoint x="120" y="1350" as="targetPoint" />
          </mxGeometry>
        </mxCell>
        <mxCell id="xyvLPHj3RRTKYlfgmULw-248" value="BRAK KASZLU" style="text;html=1;align=center;verticalAlign=middle;resizable=0;points=[];autosize=1;strokeColor=none;fillColor=none;" vertex="1" parent="1">
          <mxGeometry x="154" y="1350" width="100" height="20" as="geometry" />
        </mxCell>
        <mxCell id="xyvLPHj3RRTKYlfgmULw-249" value="KASZEL" style="text;html=1;align=center;verticalAlign=middle;resizable=0;points=[];autosize=1;strokeColor=none;fillColor=none;" vertex="1" parent="1">
          <mxGeometry x="156" y="1330" width="60" height="20" as="geometry" />
        </mxCell>
        <mxCell id="xyvLPHj3RRTKYlfgmULw-250" value="" style="endArrow=classic;html=1;curved=1;" edge="1" parent="1">
          <mxGeometry x="80" y="1260" width="50" height="50" as="geometry">
            <mxPoint x="120" y="1350" as="sourcePoint" />
            <mxPoint x="160" y="1340" as="targetPoint" />
          </mxGeometry>
        </mxCell>
        <mxCell id="xyvLPHj3RRTKYlfgmULw-251" value="" style="endArrow=classic;html=1;curved=1;" edge="1" parent="1">
          <mxGeometry x="80" y="1260" width="50" height="50" as="geometry">
            <mxPoint x="120" y="1350" as="sourcePoint" />
            <mxPoint x="160" y="1360" as="targetPoint" />
          </mxGeometry>
        </mxCell>
        <mxCell id="xyvLPHj3RRTKYlfgmULw-148" value="" style="endArrow=classic;html=1;rounded=0;" edge="1" parent="1">
          <mxGeometry x="80" y="1020" width="50" height="50" as="geometry">
            <mxPoint x="80" y="1150" as="sourcePoint" />
            <mxPoint x="480" y="1150" as="targetPoint" />
          </mxGeometry>
        </mxCell>
        <mxCell id="xyvLPHj3RRTKYlfgmULw-149" value="PRZYSZŁOŚĆ" style="text;html=1;align=center;verticalAlign=middle;resizable=0;points=[];autosize=1;strokeColor=none;fillColor=none;" vertex="1" parent="1">
          <mxGeometry x="370" y="1160" width="100" height="20" as="geometry" />
        </mxCell>
        <mxCell id="xyvLPHj3RRTKYlfgmULw-150" value="TERAŹNIEJSZOŚĆ" style="text;html=1;align=center;verticalAlign=middle;resizable=0;points=[];autosize=1;strokeColor=none;fillColor=none;" vertex="1" parent="1">
          <mxGeometry x="80" y="1160" width="120" height="20" as="geometry" />
        </mxCell>
        <mxCell id="xyvLPHj3RRTKYlfgmULw-151" value="" style="endArrow=classic;html=1;curved=1;" edge="1" parent="1">
          <mxGeometry x="80" y="1020" width="50" height="50" as="geometry">
            <mxPoint x="80" y="1070" as="sourcePoint" />
            <mxPoint x="120" y="1030" as="targetPoint" />
          </mxGeometry>
        </mxCell>
        <mxCell id="xyvLPHj3RRTKYlfgmULw-152" value="" style="endArrow=classic;html=1;curved=1;" edge="1" parent="1">
          <mxGeometry x="80" y="1020" width="50" height="50" as="geometry">
            <mxPoint x="80" y="1070" as="sourcePoint" />
            <mxPoint x="120" y="1110" as="targetPoint" />
          </mxGeometry>
        </mxCell>
        <mxCell id="xyvLPHj3RRTKYlfgmULw-232" value="ZAPALIĆ" style="text;html=1;align=center;verticalAlign=middle;resizable=0;points=[];autosize=1;strokeColor=none;fillColor=none;" vertex="1" parent="1">
          <mxGeometry x="120" y="1100" width="60" height="20" as="geometry" />
        </mxCell>
        <mxCell id="xyvLPHj3RRTKYlfgmULw-233" value="NIE ZAPALIĆ" style="text;html=1;align=center;verticalAlign=middle;resizable=0;points=[];autosize=1;strokeColor=none;fillColor=none;" vertex="1" parent="1">
          <mxGeometry x="116" y="1020" width="90" height="20" as="geometry" />
        </mxCell>
        <mxCell id="xyvLPHj3RRTKYlfgmULw-21" value="" style="endArrow=classic;html=1;rounded=0;" edge="1" parent="1">
          <mxGeometry x="80" y="1450" width="50" height="50" as="geometry">
            <mxPoint x="80" y="1700" as="sourcePoint" />
            <mxPoint x="480" y="1700" as="targetPoint" />
          </mxGeometry>
        </mxCell>
        <mxCell id="xyvLPHj3RRTKYlfgmULw-22" value="PRZYSZŁOŚĆ" style="text;html=1;align=center;verticalAlign=middle;resizable=0;points=[];autosize=1;strokeColor=none;fillColor=none;" vertex="1" parent="1">
          <mxGeometry x="370" y="1710" width="100" height="20" as="geometry" />
        </mxCell>
        <mxCell id="xyvLPHj3RRTKYlfgmULw-23" value="TERAŹNIEJSZOŚĆ" style="text;html=1;align=center;verticalAlign=middle;resizable=0;points=[];autosize=1;strokeColor=none;fillColor=none;" vertex="1" parent="1">
          <mxGeometry x="80" y="1710" width="120" height="20" as="geometry" />
        </mxCell>
        <mxCell id="xyvLPHj3RRTKYlfgmULw-24" value="" style="endArrow=classic;html=1;curved=1;" edge="1" parent="1">
          <mxGeometry x="80" y="1450" width="50" height="50" as="geometry">
            <mxPoint x="80" y="1620" as="sourcePoint" />
            <mxPoint x="120" y="1580" as="targetPoint" />
          </mxGeometry>
        </mxCell>
        <mxCell id="xyvLPHj3RRTKYlfgmULw-25" value="" style="endArrow=classic;html=1;curved=1;" edge="1" parent="1">
          <mxGeometry x="80" y="1450" width="50" height="50" as="geometry">
            <mxPoint x="80" y="1620" as="sourcePoint" />
            <mxPoint x="120" y="1660" as="targetPoint" />
          </mxGeometry>
        </mxCell>
        <mxCell id="xyvLPHj3RRTKYlfgmULw-27" value="" style="endArrow=classic;html=1;curved=1;" edge="1" parent="1">
          <mxGeometry x="80" y="1450" width="50" height="50" as="geometry">
            <mxPoint x="120" y="1580" as="sourcePoint" />
            <mxPoint x="160" y="1570" as="targetPoint" />
          </mxGeometry>
        </mxCell>
        <mxCell id="xyvLPHj3RRTKYlfgmULw-28" value="" style="endArrow=classic;html=1;curved=1;" edge="1" parent="1">
          <mxGeometry x="80" y="1450" width="50" height="50" as="geometry">
            <mxPoint x="120" y="1580" as="sourcePoint" />
            <mxPoint x="160" y="1590" as="targetPoint" />
          </mxGeometry>
        </mxCell>
        <mxCell id="xyvLPHj3RRTKYlfgmULw-31" value="" style="endArrow=classic;html=1;curved=1;" edge="1" parent="1">
          <mxGeometry x="80" y="1450" width="50" height="50" as="geometry">
            <mxPoint x="120" y="1660" as="sourcePoint" />
            <mxPoint x="160" y="1650" as="targetPoint" />
          </mxGeometry>
        </mxCell>
        <mxCell id="xyvLPHj3RRTKYlfgmULw-32" value="" style="endArrow=classic;html=1;curved=1;" edge="1" parent="1">
          <mxGeometry x="80" y="1450" width="50" height="50" as="geometry">
            <mxPoint x="120" y="1660" as="sourcePoint" />
            <mxPoint x="160" y="1670" as="targetPoint" />
          </mxGeometry>
        </mxCell>
        <mxCell id="xyvLPHj3RRTKYlfgmULw-33" value="" style="endArrow=classic;html=1;curved=1;" edge="1" parent="1">
          <mxGeometry x="80" y="1450" width="50" height="50" as="geometry">
            <mxPoint x="160" y="1590" as="sourcePoint" />
            <mxPoint x="200" y="1590" as="targetPoint" />
          </mxGeometry>
        </mxCell>
        <mxCell id="xyvLPHj3RRTKYlfgmULw-34" value="" style="endArrow=classic;html=1;curved=1;" edge="1" parent="1">
          <mxGeometry x="80" y="1450" width="50" height="50" as="geometry">
            <mxPoint x="160" y="1590" as="sourcePoint" />
            <mxPoint x="200" y="1620" as="targetPoint" />
          </mxGeometry>
        </mxCell>
        <mxCell id="xyvLPHj3RRTKYlfgmULw-35" value="" style="endArrow=classic;html=1;curved=1;" edge="1" parent="1">
          <mxGeometry x="80" y="1450" width="50" height="50" as="geometry">
            <mxPoint x="160" y="1650" as="sourcePoint" />
            <mxPoint x="200" y="1640" as="targetPoint" />
          </mxGeometry>
        </mxCell>
        <mxCell id="xyvLPHj3RRTKYlfgmULw-36" value="" style="endArrow=classic;html=1;curved=1;" edge="1" parent="1">
          <mxGeometry x="80" y="1450" width="50" height="50" as="geometry">
            <mxPoint x="160" y="1650" as="sourcePoint" />
            <mxPoint x="200" y="1660" as="targetPoint" />
          </mxGeometry>
        </mxCell>
        <mxCell id="xyvLPHj3RRTKYlfgmULw-37" value="" style="endArrow=classic;html=1;curved=1;" edge="1" parent="1">
          <mxGeometry x="80" y="1450" width="50" height="50" as="geometry">
            <mxPoint x="160" y="1570" as="sourcePoint" />
            <mxPoint x="200" y="1540" as="targetPoint" />
          </mxGeometry>
        </mxCell>
        <mxCell id="xyvLPHj3RRTKYlfgmULw-38" value="" style="endArrow=classic;html=1;curved=1;" edge="1" parent="1">
          <mxGeometry x="80" y="1450" width="50" height="50" as="geometry">
            <mxPoint x="160" y="1570" as="sourcePoint" />
            <mxPoint x="200" y="1570" as="targetPoint" />
          </mxGeometry>
        </mxCell>
        <mxCell id="xyvLPHj3RRTKYlfgmULw-39" value="" style="endArrow=classic;html=1;curved=1;" edge="1" parent="1">
          <mxGeometry x="80" y="1450" width="50" height="50" as="geometry">
            <mxPoint x="200" y="1540" as="sourcePoint" />
            <mxPoint x="240" y="1530" as="targetPoint" />
          </mxGeometry>
        </mxCell>
        <mxCell id="xyvLPHj3RRTKYlfgmULw-40" value="" style="endArrow=classic;html=1;curved=1;" edge="1" parent="1">
          <mxGeometry x="80" y="1450" width="50" height="50" as="geometry">
            <mxPoint x="200" y="1540" as="sourcePoint" />
            <mxPoint x="240" y="1550" as="targetPoint" />
          </mxGeometry>
        </mxCell>
        <mxCell id="xyvLPHj3RRTKYlfgmULw-41" value="" style="endArrow=classic;html=1;curved=1;" edge="1" parent="1">
          <mxGeometry x="80" y="1450" width="50" height="50" as="geometry">
            <mxPoint x="200" y="1570" as="sourcePoint" />
            <mxPoint x="240" y="1560" as="targetPoint" />
          </mxGeometry>
        </mxCell>
        <mxCell id="xyvLPHj3RRTKYlfgmULw-42" value="" style="endArrow=classic;html=1;curved=1;" edge="1" parent="1">
          <mxGeometry x="80" y="1450" width="50" height="50" as="geometry">
            <mxPoint x="200" y="1570" as="sourcePoint" />
            <mxPoint x="240" y="1580" as="targetPoint" />
          </mxGeometry>
        </mxCell>
        <mxCell id="xyvLPHj3RRTKYlfgmULw-43" value="" style="endArrow=classic;html=1;curved=1;" edge="1" parent="1">
          <mxGeometry x="80" y="1450" width="50" height="50" as="geometry">
            <mxPoint x="200" y="1620" as="sourcePoint" />
            <mxPoint x="240" y="1610" as="targetPoint" />
          </mxGeometry>
        </mxCell>
        <mxCell id="xyvLPHj3RRTKYlfgmULw-44" value="" style="endArrow=classic;html=1;curved=1;" edge="1" parent="1">
          <mxGeometry x="80" y="1450" width="50" height="50" as="geometry">
            <mxPoint x="200" y="1620" as="sourcePoint" />
            <mxPoint x="240" y="1630" as="targetPoint" />
          </mxGeometry>
        </mxCell>
        <mxCell id="xyvLPHj3RRTKYlfgmULw-45" value="" style="endArrow=classic;html=1;curved=1;" edge="1" parent="1">
          <mxGeometry x="80" y="1450" width="50" height="50" as="geometry">
            <mxPoint x="200" y="1590" as="sourcePoint" />
            <mxPoint x="240" y="1590" as="targetPoint" />
          </mxGeometry>
        </mxCell>
        <mxCell id="xyvLPHj3RRTKYlfgmULw-46" value="" style="endArrow=classic;html=1;curved=1;" edge="1" parent="1">
          <mxGeometry x="80" y="1450" width="50" height="50" as="geometry">
            <mxPoint x="200" y="1590" as="sourcePoint" />
            <mxPoint x="240" y="1600" as="targetPoint" />
          </mxGeometry>
        </mxCell>
        <mxCell id="xyvLPHj3RRTKYlfgmULw-47" value="" style="endArrow=classic;html=1;curved=1;" edge="1" parent="1">
          <mxGeometry x="80" y="1450" width="50" height="50" as="geometry">
            <mxPoint x="200" y="1660" as="sourcePoint" />
            <mxPoint x="240" y="1650" as="targetPoint" />
          </mxGeometry>
        </mxCell>
        <mxCell id="xyvLPHj3RRTKYlfgmULw-48" value="" style="endArrow=classic;html=1;curved=1;" edge="1" parent="1">
          <mxGeometry x="80" y="1450" width="50" height="50" as="geometry">
            <mxPoint x="200" y="1660" as="sourcePoint" />
            <mxPoint x="240" y="1670" as="targetPoint" />
          </mxGeometry>
        </mxCell>
        <mxCell id="xyvLPHj3RRTKYlfgmULw-52" value="..." style="text;html=1;strokeColor=none;fillColor=none;align=center;verticalAlign=middle;whiteSpace=wrap;rounded=0;" vertex="1" parent="1">
          <mxGeometry x="230" y="1530" width="60" height="30" as="geometry" />
        </mxCell>
        <mxCell id="xyvLPHj3RRTKYlfgmULw-53" value="..." style="text;html=1;strokeColor=none;fillColor=none;align=center;verticalAlign=middle;whiteSpace=wrap;rounded=0;" vertex="1" parent="1">
          <mxGeometry x="230" y="1560" width="60" height="30" as="geometry" />
        </mxCell>
        <mxCell id="xyvLPHj3RRTKYlfgmULw-54" value="..." style="text;html=1;strokeColor=none;fillColor=none;align=center;verticalAlign=middle;whiteSpace=wrap;rounded=0;" vertex="1" parent="1">
          <mxGeometry x="230" y="1590" width="60" height="30" as="geometry" />
        </mxCell>
        <mxCell id="xyvLPHj3RRTKYlfgmULw-55" value="..." style="text;html=1;strokeColor=none;fillColor=none;align=center;verticalAlign=middle;whiteSpace=wrap;rounded=0;" vertex="1" parent="1">
          <mxGeometry x="230" y="1620" width="60" height="30" as="geometry" />
        </mxCell>
        <mxCell id="xyvLPHj3RRTKYlfgmULw-56" value="..." style="text;html=1;strokeColor=none;fillColor=none;align=center;verticalAlign=middle;whiteSpace=wrap;rounded=0;" vertex="1" parent="1">
          <mxGeometry x="230" y="1640" width="60" height="30" as="geometry" />
        </mxCell>
        <mxCell id="xyvLPHj3RRTKYlfgmULw-77" value="..." style="text;html=1;strokeColor=none;fillColor=none;align=center;verticalAlign=middle;whiteSpace=wrap;rounded=0;" vertex="1" parent="1">
          <mxGeometry x="260" y="1450" width="60" height="30" as="geometry" />
        </mxCell>
        <mxCell id="xyvLPHj3RRTKYlfgmULw-78" value="..." style="text;html=1;strokeColor=none;fillColor=none;align=center;verticalAlign=middle;whiteSpace=wrap;rounded=0;" vertex="1" parent="1">
          <mxGeometry x="260" y="1480" width="60" height="30" as="geometry" />
        </mxCell>
        <mxCell id="xyvLPHj3RRTKYlfgmULw-79" value="..." style="text;html=1;strokeColor=none;fillColor=none;align=center;verticalAlign=middle;whiteSpace=wrap;rounded=0;" vertex="1" parent="1">
          <mxGeometry x="260" y="1510" width="60" height="30" as="geometry" />
        </mxCell>
        <mxCell id="xyvLPHj3RRTKYlfgmULw-80" value="..." style="text;html=1;strokeColor=none;fillColor=none;align=center;verticalAlign=middle;whiteSpace=wrap;rounded=0;" vertex="1" parent="1">
          <mxGeometry x="260" y="1540" width="60" height="30" as="geometry" />
        </mxCell>
        <mxCell id="xyvLPHj3RRTKYlfgmULw-81" value="..." style="text;html=1;strokeColor=none;fillColor=none;align=center;verticalAlign=middle;whiteSpace=wrap;rounded=0;" vertex="1" parent="1">
          <mxGeometry x="260" y="1560" width="60" height="30" as="geometry" />
        </mxCell>
        <mxCell id="xyvLPHj3RRTKYlfgmULw-82" value="..." style="text;html=1;strokeColor=none;fillColor=none;align=center;verticalAlign=middle;whiteSpace=wrap;rounded=0;" vertex="1" parent="1">
          <mxGeometry x="260" y="1580" width="60" height="30" as="geometry" />
        </mxCell>
        <mxCell id="xyvLPHj3RRTKYlfgmULw-83" value="..." style="text;html=1;strokeColor=none;fillColor=none;align=center;verticalAlign=middle;whiteSpace=wrap;rounded=0;" vertex="1" parent="1">
          <mxGeometry x="260" y="1610" width="60" height="30" as="geometry" />
        </mxCell>
        <mxCell id="xyvLPHj3RRTKYlfgmULw-84" value="..." style="text;html=1;strokeColor=none;fillColor=none;align=center;verticalAlign=middle;whiteSpace=wrap;rounded=0;" vertex="1" parent="1">
          <mxGeometry x="260" y="1640" width="60" height="30" as="geometry" />
        </mxCell>
        <mxCell id="xyvLPHj3RRTKYlfgmULw-85" value="..." style="text;html=1;strokeColor=none;fillColor=none;align=center;verticalAlign=middle;whiteSpace=wrap;rounded=0;" vertex="1" parent="1">
          <mxGeometry x="260" y="1670" width="60" height="30" as="geometry" />
        </mxCell>
        <mxCell id="xyvLPHj3RRTKYlfgmULw-101" value="" style="group;rotation=-15;" vertex="1" connectable="0" parent="1">
          <mxGeometry x="320" y="1463" width="40" height="4" as="geometry" />
        </mxCell>
        <mxCell id="xyvLPHj3RRTKYlfgmULw-57" value="" style="endArrow=classic;html=1;curved=1;entryX=0;entryY=0.5;entryDx=0;entryDy=0;" edge="1" parent="xyvLPHj3RRTKYlfgmULw-101" target="xyvLPHj3RRTKYlfgmULw-88">
          <mxGeometry width="50" height="50" relative="1" as="geometry">
            <mxPoint x="1" y="7" as="sourcePoint" />
            <mxPoint x="29" y="-3" as="targetPoint" />
          </mxGeometry>
        </mxCell>
        <mxCell id="xyvLPHj3RRTKYlfgmULw-88" value="" style="ellipse;whiteSpace=wrap;html=1;fillColor=#33FF33;gradientColor=none;rotation=-15;" vertex="1" parent="xyvLPHj3RRTKYlfgmULw-101">
          <mxGeometry x="35" y="-5" width="4" height="4" as="geometry" />
        </mxCell>
        <mxCell id="xyvLPHj3RRTKYlfgmULw-102" value="" style="group;rotation=10;" vertex="1" connectable="0" parent="1">
          <mxGeometry x="320" y="1476" width="40" height="4" as="geometry" />
        </mxCell>
        <mxCell id="xyvLPHj3RRTKYlfgmULw-103" value="" style="endArrow=classic;html=1;curved=1;entryX=0;entryY=0.5;entryDx=0;entryDy=0;" edge="1" parent="xyvLPHj3RRTKYlfgmULw-102" target="xyvLPHj3RRTKYlfgmULw-104">
          <mxGeometry width="50" height="50" relative="1" as="geometry">
            <mxPoint x="1" y="-1" as="sourcePoint" />
            <mxPoint x="30" y="1" as="targetPoint" />
          </mxGeometry>
        </mxCell>
        <mxCell id="xyvLPHj3RRTKYlfgmULw-104" value="" style="ellipse;whiteSpace=wrap;html=1;fillColor=#FF0000;gradientColor=none;rotation=10;" vertex="1" parent="xyvLPHj3RRTKYlfgmULw-102">
          <mxGeometry x="36" y="3" width="4" height="4" as="geometry" />
        </mxCell>
        <mxCell id="xyvLPHj3RRTKYlfgmULw-105" value="" style="group;rotation=-15;" vertex="1" connectable="0" parent="1">
          <mxGeometry x="320" y="1493" width="40" height="4" as="geometry" />
        </mxCell>
        <mxCell id="xyvLPHj3RRTKYlfgmULw-106" value="" style="endArrow=classic;html=1;curved=1;entryX=0;entryY=0.5;entryDx=0;entryDy=0;" edge="1" parent="xyvLPHj3RRTKYlfgmULw-105" target="xyvLPHj3RRTKYlfgmULw-107">
          <mxGeometry width="50" height="50" relative="1" as="geometry">
            <mxPoint x="1" y="7" as="sourcePoint" />
            <mxPoint x="29" y="-3" as="targetPoint" />
          </mxGeometry>
        </mxCell>
        <mxCell id="xyvLPHj3RRTKYlfgmULw-107" value="" style="ellipse;whiteSpace=wrap;html=1;fillColor=#33FF33;gradientColor=none;rotation=-15;" vertex="1" parent="xyvLPHj3RRTKYlfgmULw-105">
          <mxGeometry x="35" y="-5" width="4" height="4" as="geometry" />
        </mxCell>
        <mxCell id="xyvLPHj3RRTKYlfgmULw-108" value="" style="group;rotation=0;" vertex="1" connectable="0" parent="1">
          <mxGeometry x="320" y="1506" width="40" height="4" as="geometry" />
        </mxCell>
        <mxCell id="xyvLPHj3RRTKYlfgmULw-109" value="" style="endArrow=classic;html=1;curved=1;entryX=0;entryY=0.5;entryDx=0;entryDy=0;" edge="1" parent="xyvLPHj3RRTKYlfgmULw-108" target="xyvLPHj3RRTKYlfgmULw-110">
          <mxGeometry width="50" height="50" relative="1" as="geometry">
            <mxPoint y="2" as="sourcePoint" />
            <mxPoint x="30" y="-1" as="targetPoint" />
          </mxGeometry>
        </mxCell>
        <mxCell id="xyvLPHj3RRTKYlfgmULw-110" value="" style="ellipse;whiteSpace=wrap;html=1;fillColor=#33FF33;gradientColor=none;rotation=0;" vertex="1" parent="xyvLPHj3RRTKYlfgmULw-108">
          <mxGeometry x="36" width="4" height="4" as="geometry" />
        </mxCell>
        <mxCell id="xyvLPHj3RRTKYlfgmULw-111" value="" style="group;rotation=20;" vertex="1" connectable="0" parent="1">
          <mxGeometry x="320" y="1519" width="40" height="4" as="geometry" />
        </mxCell>
        <mxCell id="xyvLPHj3RRTKYlfgmULw-112" value="" style="endArrow=classic;html=1;curved=1;entryX=0;entryY=0.5;entryDx=0;entryDy=0;" edge="1" parent="xyvLPHj3RRTKYlfgmULw-111" target="xyvLPHj3RRTKYlfgmULw-113">
          <mxGeometry width="50" height="50" relative="1" as="geometry">
            <mxPoint x="2" y="-5" as="sourcePoint" />
            <mxPoint x="30" y="3" as="targetPoint" />
          </mxGeometry>
        </mxCell>
        <mxCell id="xyvLPHj3RRTKYlfgmULw-113" value="" style="ellipse;whiteSpace=wrap;html=1;fillColor=#33FF33;gradientColor=none;rotation=20;" vertex="1" parent="xyvLPHj3RRTKYlfgmULw-111">
          <mxGeometry x="35" y="6" width="4" height="4" as="geometry" />
        </mxCell>
        <mxCell id="xyvLPHj3RRTKYlfgmULw-114" value="" style="group;rotation=-15;" vertex="1" connectable="0" parent="1">
          <mxGeometry x="320" y="1537" width="40" height="4" as="geometry" />
        </mxCell>
        <mxCell id="xyvLPHj3RRTKYlfgmULw-115" value="" style="endArrow=classic;html=1;curved=1;entryX=0;entryY=0.5;entryDx=0;entryDy=0;" edge="1" parent="xyvLPHj3RRTKYlfgmULw-114" target="xyvLPHj3RRTKYlfgmULw-116">
          <mxGeometry width="50" height="50" relative="1" as="geometry">
            <mxPoint x="1" y="7" as="sourcePoint" />
            <mxPoint x="29" y="-3" as="targetPoint" />
          </mxGeometry>
        </mxCell>
        <mxCell id="xyvLPHj3RRTKYlfgmULw-116" value="" style="ellipse;whiteSpace=wrap;html=1;fillColor=#33FF33;gradientColor=none;rotation=-15;" vertex="1" parent="xyvLPHj3RRTKYlfgmULw-114">
          <mxGeometry x="35" y="-5" width="4" height="4" as="geometry" />
        </mxCell>
        <mxCell id="xyvLPHj3RRTKYlfgmULw-117" value="" style="group;rotation=15;" vertex="1" connectable="0" parent="1">
          <mxGeometry x="320" y="1549" width="40" height="4" as="geometry" />
        </mxCell>
        <mxCell id="xyvLPHj3RRTKYlfgmULw-118" value="" style="endArrow=classic;html=1;curved=1;entryX=0;entryY=0.5;entryDx=0;entryDy=0;" edge="1" parent="xyvLPHj3RRTKYlfgmULw-117" target="xyvLPHj3RRTKYlfgmULw-119">
          <mxGeometry width="50" height="50" relative="1" as="geometry">
            <mxPoint x="1" y="-3" as="sourcePoint" />
            <mxPoint x="30" y="2" as="targetPoint" />
          </mxGeometry>
        </mxCell>
        <mxCell id="xyvLPHj3RRTKYlfgmULw-119" value="" style="ellipse;whiteSpace=wrap;html=1;fillColor=#33FF33;gradientColor=none;rotation=15;" vertex="1" parent="xyvLPHj3RRTKYlfgmULw-117">
          <mxGeometry x="35" y="4" width="4" height="4" as="geometry" />
        </mxCell>
        <mxCell id="xyvLPHj3RRTKYlfgmULw-120" value="" style="group;rotation=-5;" vertex="1" connectable="0" parent="1">
          <mxGeometry x="320" y="1563" width="40" height="4" as="geometry" />
        </mxCell>
        <mxCell id="xyvLPHj3RRTKYlfgmULw-121" value="" style="endArrow=classic;html=1;curved=1;entryX=0;entryY=0.5;entryDx=0;entryDy=0;" edge="1" parent="xyvLPHj3RRTKYlfgmULw-120" target="xyvLPHj3RRTKYlfgmULw-122">
          <mxGeometry width="50" height="50" relative="1" as="geometry">
            <mxPoint y="4" as="sourcePoint" />
            <mxPoint x="30" y="-1" as="targetPoint" />
          </mxGeometry>
        </mxCell>
        <mxCell id="xyvLPHj3RRTKYlfgmULw-122" value="" style="ellipse;whiteSpace=wrap;html=1;fillColor=#33FF33;gradientColor=none;rotation=-5;" vertex="1" parent="xyvLPHj3RRTKYlfgmULw-120">
          <mxGeometry x="36" y="-2" width="4" height="4" as="geometry" />
        </mxCell>
        <mxCell id="xyvLPHj3RRTKYlfgmULw-123" value="" style="group;rotation=15;" vertex="1" connectable="0" parent="1">
          <mxGeometry x="320" y="1577" width="40" height="4" as="geometry" />
        </mxCell>
        <mxCell id="xyvLPHj3RRTKYlfgmULw-124" value="" style="endArrow=classic;html=1;curved=1;entryX=0;entryY=0.5;entryDx=0;entryDy=0;" edge="1" parent="xyvLPHj3RRTKYlfgmULw-123" target="xyvLPHj3RRTKYlfgmULw-125">
          <mxGeometry width="50" height="50" relative="1" as="geometry">
            <mxPoint x="1" y="-3" as="sourcePoint" />
            <mxPoint x="30" y="2" as="targetPoint" />
          </mxGeometry>
        </mxCell>
        <mxCell id="xyvLPHj3RRTKYlfgmULw-125" value="" style="ellipse;whiteSpace=wrap;html=1;fillColor=#FF0000;gradientColor=none;rotation=15;" vertex="1" parent="xyvLPHj3RRTKYlfgmULw-123">
          <mxGeometry x="35" y="4" width="4" height="4" as="geometry" />
        </mxCell>
        <mxCell id="xyvLPHj3RRTKYlfgmULw-126" value="" style="group;rotation=-15;" vertex="1" connectable="0" parent="1">
          <mxGeometry x="320" y="1599" width="40" height="4" as="geometry" />
        </mxCell>
        <mxCell id="xyvLPHj3RRTKYlfgmULw-127" value="" style="endArrow=classic;html=1;curved=1;entryX=0;entryY=0.5;entryDx=0;entryDy=0;" edge="1" parent="xyvLPHj3RRTKYlfgmULw-126" target="xyvLPHj3RRTKYlfgmULw-128">
          <mxGeometry width="50" height="50" relative="1" as="geometry">
            <mxPoint x="1" y="7" as="sourcePoint" />
            <mxPoint x="29" y="-3" as="targetPoint" />
          </mxGeometry>
        </mxCell>
        <mxCell id="xyvLPHj3RRTKYlfgmULw-128" value="" style="ellipse;whiteSpace=wrap;html=1;fillColor=#33FF33;gradientColor=none;rotation=-15;" vertex="1" parent="xyvLPHj3RRTKYlfgmULw-126">
          <mxGeometry x="35" y="-5" width="4" height="4" as="geometry" />
        </mxCell>
        <mxCell id="xyvLPHj3RRTKYlfgmULw-129" value="" style="group;rotation=0;" vertex="1" connectable="0" parent="1">
          <mxGeometry x="320" y="1610" width="40" height="4" as="geometry" />
        </mxCell>
        <mxCell id="xyvLPHj3RRTKYlfgmULw-130" value="" style="endArrow=classic;html=1;curved=1;entryX=0;entryY=0.5;entryDx=0;entryDy=0;" edge="1" parent="xyvLPHj3RRTKYlfgmULw-129" target="xyvLPHj3RRTKYlfgmULw-131">
          <mxGeometry width="50" height="50" relative="1" as="geometry">
            <mxPoint y="2" as="sourcePoint" />
            <mxPoint x="30" y="-1" as="targetPoint" />
          </mxGeometry>
        </mxCell>
        <mxCell id="xyvLPHj3RRTKYlfgmULw-131" value="" style="ellipse;whiteSpace=wrap;html=1;fillColor=#FF0000;gradientColor=none;rotation=0;" vertex="1" parent="xyvLPHj3RRTKYlfgmULw-129">
          <mxGeometry x="36" width="4" height="4" as="geometry" />
        </mxCell>
        <mxCell id="xyvLPHj3RRTKYlfgmULw-132" value="" style="group;rotation=15;" vertex="1" connectable="0" parent="1">
          <mxGeometry x="320" y="1623" width="40" height="4" as="geometry" />
        </mxCell>
        <mxCell id="xyvLPHj3RRTKYlfgmULw-133" value="" style="endArrow=classic;html=1;curved=1;entryX=0;entryY=0.5;entryDx=0;entryDy=0;" edge="1" parent="xyvLPHj3RRTKYlfgmULw-132" target="xyvLPHj3RRTKYlfgmULw-134">
          <mxGeometry width="50" height="50" relative="1" as="geometry">
            <mxPoint x="1" y="-3" as="sourcePoint" />
            <mxPoint x="30" y="2" as="targetPoint" />
          </mxGeometry>
        </mxCell>
        <mxCell id="xyvLPHj3RRTKYlfgmULw-134" value="" style="ellipse;whiteSpace=wrap;html=1;fillColor=#FF0000;gradientColor=none;rotation=15;" vertex="1" parent="xyvLPHj3RRTKYlfgmULw-132">
          <mxGeometry x="35" y="4" width="4" height="4" as="geometry" />
        </mxCell>
        <mxCell id="xyvLPHj3RRTKYlfgmULw-135" value="" style="group;rotation=20;" vertex="1" connectable="0" parent="1">
          <mxGeometry x="320" y="1640" width="40" height="4" as="geometry" />
        </mxCell>
        <mxCell id="xyvLPHj3RRTKYlfgmULw-136" value="" style="endArrow=classic;html=1;curved=1;entryX=0;entryY=0.5;entryDx=0;entryDy=0;" edge="1" parent="xyvLPHj3RRTKYlfgmULw-135" target="xyvLPHj3RRTKYlfgmULw-137">
          <mxGeometry width="50" height="50" relative="1" as="geometry">
            <mxPoint x="2" y="-5" as="sourcePoint" />
            <mxPoint x="30" y="3" as="targetPoint" />
          </mxGeometry>
        </mxCell>
        <mxCell id="xyvLPHj3RRTKYlfgmULw-137" value="" style="ellipse;whiteSpace=wrap;html=1;fillColor=#FF0000;gradientColor=none;rotation=20;" vertex="1" parent="xyvLPHj3RRTKYlfgmULw-135">
          <mxGeometry x="35" y="6" width="4" height="4" as="geometry" />
        </mxCell>
        <mxCell id="xyvLPHj3RRTKYlfgmULw-138" value="" style="group;rotation=15;" vertex="1" connectable="0" parent="1">
          <mxGeometry x="320" y="1653" width="40" height="4" as="geometry" />
        </mxCell>
        <mxCell id="xyvLPHj3RRTKYlfgmULw-139" value="" style="endArrow=classic;html=1;curved=1;entryX=0;entryY=0.5;entryDx=0;entryDy=0;" edge="1" parent="xyvLPHj3RRTKYlfgmULw-138" target="xyvLPHj3RRTKYlfgmULw-140">
          <mxGeometry width="50" height="50" relative="1" as="geometry">
            <mxPoint x="1" y="-3" as="sourcePoint" />
            <mxPoint x="30" y="2" as="targetPoint" />
          </mxGeometry>
        </mxCell>
        <mxCell id="xyvLPHj3RRTKYlfgmULw-140" value="" style="ellipse;whiteSpace=wrap;html=1;fillColor=#FF0000;gradientColor=none;rotation=15;" vertex="1" parent="xyvLPHj3RRTKYlfgmULw-138">
          <mxGeometry x="35" y="4" width="4" height="4" as="geometry" />
        </mxCell>
        <mxCell id="xyvLPHj3RRTKYlfgmULw-141" value="" style="group;rotation=30;" vertex="1" connectable="0" parent="1">
          <mxGeometry x="320" y="1670" width="40" height="4" as="geometry" />
        </mxCell>
        <mxCell id="xyvLPHj3RRTKYlfgmULw-142" value="" style="endArrow=classic;html=1;curved=1;entryX=0;entryY=0.5;entryDx=0;entryDy=0;" edge="1" parent="xyvLPHj3RRTKYlfgmULw-141" target="xyvLPHj3RRTKYlfgmULw-143">
          <mxGeometry width="50" height="50" relative="1" as="geometry">
            <mxPoint x="3" y="-8" as="sourcePoint" />
            <mxPoint x="30" y="5" as="targetPoint" />
          </mxGeometry>
        </mxCell>
        <mxCell id="xyvLPHj3RRTKYlfgmULw-143" value="" style="ellipse;whiteSpace=wrap;html=1;fillColor=#FF0000;gradientColor=none;rotation=30;" vertex="1" parent="xyvLPHj3RRTKYlfgmULw-141">
          <mxGeometry x="34" y="8" width="4" height="4" as="geometry" />
        </mxCell>
        <mxCell id="xyvLPHj3RRTKYlfgmULw-341" style="edgeStyle=orthogonalEdgeStyle;curved=1;orthogonalLoop=1;jettySize=auto;html=1;entryX=1;entryY=0.5;entryDx=0;entryDy=0;strokeColor=#808080;" edge="1" parent="1" source="xyvLPHj3RRTKYlfgmULw-340" target="xyvLPHj3RRTKYlfgmULw-324">
          <mxGeometry relative="1" as="geometry" />
        </mxCell>
        <mxCell id="xyvLPHj3RRTKYlfgmULw-340" value="ŚMIERĆ W TORONTO,&lt;br&gt;RAK W OBU PŁUCACH" style="text;html=1;strokeColor=none;fillColor=none;align=center;verticalAlign=middle;whiteSpace=wrap;rounded=0;" vertex="1" parent="1">
          <mxGeometry x="400" y="1840" width="60" height="30" as="geometry" />
        </mxCell>
        <mxCell id="xyvLPHj3RRTKYlfgmULw-342" value="" style="ellipse;whiteSpace=wrap;html=1;fillColor=#33FF33;gradientColor=none;rotation=0;" vertex="1" parent="1">
          <mxGeometry x="411" y="1488" width="4" height="4" as="geometry" />
        </mxCell>
        <mxCell id="xyvLPHj3RRTKYlfgmULw-343" value="" style="ellipse;whiteSpace=wrap;html=1;fillColor=#FF0000;gradientColor=none;rotation=10;" vertex="1" parent="1">
          <mxGeometry x="411" y="1506" width="4" height="4" as="geometry" />
        </mxCell>
        <mxCell id="xyvLPHj3RRTKYlfgmULw-344" value="ŻYCIE" style="text;html=1;align=center;verticalAlign=middle;resizable=0;points=[];autosize=1;strokeColor=none;fillColor=none;" vertex="1" parent="1">
          <mxGeometry x="414" y="1480" width="50" height="20" as="geometry" />
        </mxCell>
        <mxCell id="xyvLPHj3RRTKYlfgmULw-345" value="ŚMIERĆ" style="text;html=1;align=center;verticalAlign=middle;resizable=0;points=[];autosize=1;strokeColor=none;fillColor=none;" vertex="1" parent="1">
          <mxGeometry x="415" y="1498" width="60" height="20" as="geometry" />
        </mxCell>
        <mxCell id="xyvLPHj3RRTKYlfgmULw-346" value="NIE ZAPALIĆ" style="text;html=1;align=center;verticalAlign=middle;resizable=0;points=[];autosize=1;strokeColor=none;fillColor=none;rotation=-30;" vertex="1" parent="1">
          <mxGeometry x="116" y="1520" width="90" height="20" as="geometry" />
        </mxCell>
        <mxCell id="xyvLPHj3RRTKYlfgmULw-347" value="ZAPALIĆ" style="text;html=1;align=center;verticalAlign=middle;resizable=0;points=[];autosize=1;strokeColor=none;fillColor=none;rotation=15;" vertex="1" parent="1">
          <mxGeometry x="130" y="1675" width="60" height="20" as="geometry" />
        </mxCell>
        <mxCell id="xyvLPHj3RRTKYlfgmULw-348" value="NIE ZAPALIĆ" style="text;html=1;align=center;verticalAlign=middle;resizable=0;points=[];autosize=1;strokeColor=none;fillColor=none;rotation=-30;" vertex="1" parent="1">
          <mxGeometry x="115" y="1829" width="90" height="20" as="geometry" />
        </mxCell>
        <mxCell id="xyvLPHj3RRTKYlfgmULw-349" value="ZAPALIĆ" style="text;html=1;align=center;verticalAlign=middle;resizable=0;points=[];autosize=1;strokeColor=none;fillColor=none;rotation=15;" vertex="1" parent="1">
          <mxGeometry x="129" y="1984" width="60" height="20" as="geometry" />
        </mxCell>
        <mxCell id="xyvLPHj3RRTKYlfgmULw-350" value="NIE ZAPALIĆ" style="text;html=1;align=center;verticalAlign=middle;resizable=0;points=[];autosize=1;strokeColor=none;fillColor=none;" vertex="1" parent="1">
          <mxGeometry x="115" y="1260" width="90" height="20" as="geometry" />
        </mxCell>
        <mxCell id="xyvLPHj3RRTKYlfgmULw-351" value="" style="endArrow=classic;html=1;curved=1;fontColor=#999999;strokeColor=#808080;" edge="1" parent="1">
          <mxGeometry x="176" y="1250" width="50" height="50" as="geometry">
            <mxPoint x="216" y="1340" as="sourcePoint" />
            <mxPoint x="256" y="1320" as="targetPoint" />
          </mxGeometry>
        </mxCell>
        <mxCell id="xyvLPHj3RRTKYlfgmULw-352" value="" style="endArrow=classic;html=1;curved=1;fontColor=#999999;strokeColor=#808080;" edge="1" parent="1">
          <mxGeometry x="176" y="1250" width="50" height="50" as="geometry">
            <mxPoint x="216" y="1340" as="sourcePoint" />
            <mxPoint x="256" y="1340" as="targetPoint" />
          </mxGeometry>
        </mxCell>
        <mxCell id="xyvLPHj3RRTKYlfgmULw-353" value="" style="endArrow=classic;html=1;curved=1;fontColor=#999999;strokeColor=#808080;" edge="1" parent="1">
          <mxGeometry x="210" y="1270" width="50" height="50" as="geometry">
            <mxPoint x="250" y="1360" as="sourcePoint" />
            <mxPoint x="290" y="1380" as="targetPoint" />
          </mxGeometry>
        </mxCell>
        <mxCell id="xyvLPHj3RRTKYlfgmULw-354" value="" style="endArrow=classic;html=1;curved=1;fontColor=#999999;strokeColor=#808080;" edge="1" parent="1">
          <mxGeometry x="210" y="1270" width="50" height="50" as="geometry">
            <mxPoint x="250" y="1360" as="sourcePoint" />
            <mxPoint x="290" y="1360" as="targetPoint" />
          </mxGeometry>
        </mxCell>
        <mxCell id="xyvLPHj3RRTKYlfgmULw-355" value="50%" style="text;html=1;align=center;verticalAlign=middle;resizable=0;points=[];autosize=1;strokeColor=none;fillColor=none;fontColor=#808080;" vertex="1" parent="1">
          <mxGeometry x="160" y="1310" width="40" height="20" as="geometry" />
        </mxCell>
        <mxCell id="xyvLPHj3RRTKYlfgmULw-356" value="50%" style="text;html=1;align=center;verticalAlign=middle;resizable=0;points=[];autosize=1;strokeColor=none;fillColor=none;fontColor=#808080;" vertex="1" parent="1">
          <mxGeometry x="160" y="1370" width="40" height="20" as="geometry" />
        </mxCell>
        <mxCell id="xyvLPHj3RRTKYlfgmULw-357" value="25%" style="text;html=1;align=center;verticalAlign=middle;resizable=0;points=[];autosize=1;strokeColor=none;fillColor=none;fontColor=#B3B3B3;" vertex="1" parent="1">
          <mxGeometry x="250" y="1310" width="40" height="20" as="geometry" />
        </mxCell>
        <mxCell id="xyvLPHj3RRTKYlfgmULw-358" value="25%" style="text;html=1;align=center;verticalAlign=middle;resizable=0;points=[];autosize=1;strokeColor=none;fillColor=none;fontColor=#B3B3B3;" vertex="1" parent="1">
          <mxGeometry x="250" y="1330" width="40" height="20" as="geometry" />
        </mxCell>
        <mxCell id="xyvLPHj3RRTKYlfgmULw-359" value="25%" style="text;html=1;align=center;verticalAlign=middle;resizable=0;points=[];autosize=1;strokeColor=none;fillColor=none;fontColor=#B3B3B3;" vertex="1" parent="1">
          <mxGeometry x="290" y="1350" width="40" height="20" as="geometry" />
        </mxCell>
        <mxCell id="xyvLPHj3RRTKYlfgmULw-360" value="25%" style="text;html=1;align=center;verticalAlign=middle;resizable=0;points=[];autosize=1;strokeColor=none;fillColor=none;fontColor=#B3B3B3;" vertex="1" parent="1">
          <mxGeometry x="290" y="1370" width="40" height="20" as="geometry" />
        </mxCell>
        <mxCell id="xyvLPHj3RRTKYlfgmULw-373" value="" style="edgeStyle=orthogonalEdgeStyle;curved=1;orthogonalLoop=1;jettySize=auto;html=1;fontColor=#999999;strokeColor=#808080;entryX=1;entryY=0.5;entryDx=0;entryDy=0;" edge="1" parent="1" source="xyvLPHj3RRTKYlfgmULw-364" target="xyvLPHj3RRTKYlfgmULw-384">
          <mxGeometry relative="1" as="geometry">
            <mxPoint x="160" y="720" as="targetPoint" />
          </mxGeometry>
        </mxCell>
        <mxCell id="xyvLPHj3RRTKYlfgmULw-377" style="edgeStyle=orthogonalEdgeStyle;curved=1;orthogonalLoop=1;jettySize=auto;html=1;exitX=1;exitY=0.25;exitDx=0;exitDy=0;entryX=1;entryY=0.5;entryDx=0;entryDy=0;fontColor=#999999;strokeColor=#808080;" edge="1" parent="1" source="xyvLPHj3RRTKYlfgmULw-364" target="xyvLPHj3RRTKYlfgmULw-368">
          <mxGeometry relative="1" as="geometry">
            <Array as="points">
              <mxPoint x="410" y="705" />
              <mxPoint x="410" y="880" />
            </Array>
          </mxGeometry>
        </mxCell>
        <mxCell id="xyvLPHj3RRTKYlfgmULw-378" style="edgeStyle=orthogonalEdgeStyle;curved=1;orthogonalLoop=1;jettySize=auto;html=1;exitX=0;exitY=0.75;exitDx=0;exitDy=0;entryX=0;entryY=0.5;entryDx=0;entryDy=0;fontColor=#999999;strokeColor=#808080;" edge="1" parent="1" source="xyvLPHj3RRTKYlfgmULw-364" target="xyvLPHj3RRTKYlfgmULw-366">
          <mxGeometry relative="1" as="geometry">
            <Array as="points">
              <mxPoint x="210" y="735" />
              <mxPoint x="210" y="800" />
            </Array>
          </mxGeometry>
        </mxCell>
        <mxCell id="xyvLPHj3RRTKYlfgmULw-364" value="CZŁOWIEK" style="rounded=0;whiteSpace=wrap;html=1;" vertex="1" parent="1">
          <mxGeometry x="240" y="690" width="120" height="60" as="geometry" />
        </mxCell>
        <mxCell id="xyvLPHj3RRTKYlfgmULw-380" style="edgeStyle=orthogonalEdgeStyle;curved=1;orthogonalLoop=1;jettySize=auto;html=1;exitX=1;exitY=0.5;exitDx=0;exitDy=0;entryX=1;entryY=0.25;entryDx=0;entryDy=0;fontColor=#999999;strokeColor=#808080;" edge="1" parent="1" source="xyvLPHj3RRTKYlfgmULw-366" target="xyvLPHj3RRTKYlfgmULw-368">
          <mxGeometry relative="1" as="geometry">
            <Array as="points">
              <mxPoint x="390" y="800" />
              <mxPoint x="390" y="865" />
            </Array>
          </mxGeometry>
        </mxCell>
        <mxCell id="xyvLPHj3RRTKYlfgmULw-366" value="LEW" style="rounded=0;whiteSpace=wrap;html=1;" vertex="1" parent="1">
          <mxGeometry x="240" y="770" width="120" height="60" as="geometry" />
        </mxCell>
        <mxCell id="xyvLPHj3RRTKYlfgmULw-368" value="ZWIERZĘ" style="rounded=0;whiteSpace=wrap;html=1;" vertex="1" parent="1">
          <mxGeometry x="240" y="850" width="120" height="60" as="geometry" />
        </mxCell>
        <mxCell id="xyvLPHj3RRTKYlfgmULw-382" value="OSWAJANIE" style="text;html=1;align=center;verticalAlign=middle;resizable=0;points=[];autosize=1;strokeColor=none;fillColor=none;fontColor=#000000;rotation=90;" vertex="1" parent="1">
          <mxGeometry x="380" y="790" width="90" height="20" as="geometry" />
        </mxCell>
        <mxCell id="xyvLPHj3RRTKYlfgmULw-383" value="TRESURA" style="text;html=1;align=center;verticalAlign=middle;resizable=0;points=[];autosize=1;strokeColor=none;fillColor=none;fontColor=#000000;rotation=-90;" vertex="1" parent="1">
          <mxGeometry x="160" y="760" width="70" height="20" as="geometry" />
        </mxCell>
        <mxCell id="xyvLPHj3RRTKYlfgmULw-384" value="UCZENIE SIĘ&lt;br&gt;TEORIA" style="ellipse;whiteSpace=wrap;html=1;fontColor=#000000;fillColor=default;gradientColor=none;" vertex="1" parent="1">
          <mxGeometry x="50" y="695" width="120" height="50" as="geometry" />
        </mxCell>
      </root>
    </mxGraphModel>
  </diagram>
</mxfile>
